<svg id="Layer_1" data-name="Layer 1" xmlns="http://www.w3.org/2000/svg" viewBox="0 0 56.69 56.69"><defs><style>.cls-1{fill:#fff;}</style></defs><path class="cls-1" d="M55.43,27c0-.13,0-.26,0-.39a13.55,13.55,0,0,0-.2-2.62,14.19,14.19,0,0,0-1.43-4.23c-.19-.34-.38-.68-.59-1A13.93,13.93,0,0,1,51,24h0a10.22,10.22,0,0,1-19.55,5.87,10.1,10.1,0,0,1,.23-7.47,10.24,10.24,0,0,1,6.42-5.75c0-.08-.08-.11-.13-.16a10.09,10.09,0,0,0-2.9-2,11.3,11.3,0,0,0-1.1-.42.23.23,0,0,0-.23,0,.41.41,0,0,1-.11.07,13.73,13.73,0,0,0-2.21,1.66,14.21,14.21,0,0,0-4.67,10A13.61,13.61,0,0,0,27,29.14,14.35,14.35,0,0,0,40.85,40.75,14.86,14.86,0,0,0,44,40.46a14.08,14.08,0,0,0,4.79-1.93,14.78,14.78,0,0,0,2.37-1.87.51.51,0,0,1,.15-.14.47.47,0,0,1,0,.23v4.66a2.47,2.47,0,0,0,0,.54,2,2,0,0,0,1.86,1.62,2.07,2.07,0,0,0,2.12-1.43,2.5,2.5,0,0,0,.09-.77Z"/><path class="cls-1" d="M35.88,12.32c.27.14.53.29.8.45s.5.32.75.49.48.35.71.54.46.38.68.59.44.41.64.63.41.44.6.67.38.47.56.72a7.52,7.52,0,0,1,.5.75c.16.25.31.51.45.77a8.69,8.69,0,0,1,.4.81c.13.27.24.54.35.82s.2.57.28.85.17.59.24.89.12.59.17.88.09.59.11.89.05.6.05.9,0,.6,0,.89,0,.6-.06.9-.08.61-.13.91-.11.59-.18.88-.16.57-.25.86-.19.57-.29.85-.23.55-.36.82-.26.54-.41.8-.31.53-.47.78-.34.5-.52.74-.36.47-.54.7a.46.46,0,0,0,.2-.13A16.62,16.62,0,0,0,44,28.19a16.38,16.38,0,0,0,1.93-7,16.18,16.18,0,0,0-.1-2.87,15.89,15.89,0,0,0-.51-2.56A16.74,16.74,0,0,0,36,5c-.5-.22-1-.42-1.52-.59-.06,0-.12-.06-.2,0a.28.28,0,0,0,0,.09v7.07l.85.35Z"/><path class="cls-1" d="M47.26,14.77c.09.8.13,1.61.14,2.42a23.88,23.88,0,0,1-.18,2.93,22,22,0,0,1-.49,2.65,22.76,22.76,0,0,1-5,9.57c-.26.3-.53.58-.8.87,0,0-.07,0,0,.1l.2-.12a24.26,24.26,0,0,0,8.88-10,23.67,23.67,0,0,0,1.9-5.75,20.47,20.47,0,0,0,.33-2.22c0-.51.08-1,.1-1.52a21.72,21.72,0,0,0-.06-3c-.06-.72-.15-1.44-.28-2.15a.76.76,0,0,0-.06-.25H45.59c0,.09,0,.15,0,.22A22.83,22.83,0,0,1,47.26,14.77Z"/><path class="cls-1" d="M40.29,28.25c0,.1,0,.19,0,.29l0,.28c0,.1,0,.19,0,.28a2.87,2.87,0,0,1-.05.31c0,.09,0,.18,0,.28L40,30l-.06.27-.09.3a2.76,2.76,0,0,1-.08.27l-.09.27c0,.09-.06.18-.1.27s-.07.19-.11.28-.08.18-.11.27l-.13.26-.12.25c0,.09-.1.18-.14.27a1,1,0,0,0-.13.27,10.29,10.29,0,0,0,2.21-3A10.8,10.8,0,0,0,41,20.18a11.54,11.54,0,0,0-1.87-2.57A10.85,10.85,0,0,0,36,19.14h0l.22.17.24.2.22.18.21.19.21.2.22.22.19.2c.07.07.13.15.19.22s.13.14.19.22l.19.23a2,2,0,0,0,.17.23l.16.24a1.88,1.88,0,0,1,.16.23l.16.26.15.25.14.25.13.25c.05.09.09.18.14.28s.07.17.11.26a2,2,0,0,1,.11.26c0,.09.08.19.11.28l.1.27a2.29,2.29,0,0,1,.08.28l.09.27c0,.1,0,.2.07.3s0,.18.07.27,0,.19,0,.28l.06.28c0,.1,0,.21,0,.31l0,.28a2.83,2.83,0,0,1,0,.29l0,.28c0,.1,0,.2,0,.31v.28a2.81,2.81,0,0,1,0,.29C40.3,28.05,40.29,28.15,40.29,28.25Z"/><path class="cls-1" d="M29.46,16.21V9.66H13.17V15.5h10V28.71c0,5-2.66,9-8.36,9s-8.41-2.89-8.41-8.59H.25c0,9.4,6.08,14.48,14.58,14.48,6.69,0,11.41-3.34,13.47-8.49a15.46,15.46,0,0,1,1.16-18.87Z"/></svg>