<svg id="Layer_1" data-name="Layer 1" xmlns="http://www.w3.org/2000/svg" viewBox="0 0 453.54 453.54"><defs><style>.cls-1{fill:#95a5a5;}.cls-2{fill:#2c3e50;}.cls-3{fill:#162635;}</style></defs><circle class="cls-1" cx="226.77" cy="226.65" r="221.62"/><path class="cls-2" d="M420.45,227a193.36,193.36,0,0,1-72.32,150.83,45.55,45.55,0,0,0-10-15.73A175.13,175.13,0,0,0,226.77,51.89C130.19,51.89,51.63,130.46,51.63,227A175.33,175.33,0,0,0,217.5,401.93V420.5A193.84,193.84,0,0,1,33.09,227C33.09,120.24,120,33.35,226.77,33.35A193.93,193.93,0,0,1,420.45,227Z"/><circle class="cls-2" cx="305.25" cy="394.06" r="36.57" transform="translate(-189.24 331.26) rotate(-45)"/><path class="cls-2" d="M327.19,210.13V333.79a36.56,36.56,0,0,0-45.77,1.53V208.65c0-13-8.93-22-21.95-22h-8.56c-8.62,0-15.4,4.22-19.06,10.85a24.47,24.47,0,0,0-2.89,9.62V335.52H183.2V208.65c0-13-8.94-22-22-22h-8.56c-13,0-22,8.94-22,22V335.52h-.26l-.9-.78A194.66,194.66,0,0,1,85,278.44V145.76h21.21l13,21.21c11.54-15.25,27.17-24.92,46.52-24.92h.74q35.16,0,51.35,24.55c10.79-15.26,27.16-24.55,46.14-24.55h.74C304.86,142.05,327.19,166.6,327.19,210.13Z"/><path class="cls-3" d="M264.68,142.05h-.74c-19,0-35.35,9.29-46.14,24.55Q201.6,142,166.45,142.05h-.74c-19.35,0-35,9.67-46.52,24.92l-13-21.21H85V278.44a194.66,194.66,0,0,0,44.6,56.3l1.16-.09v-126c0-13,8.93-22,22-22h8.56c13,0,22,8.94,22,22v117A272.79,272.79,0,0,0,229,308.79V207.16a24.47,24.47,0,0,1,2.89-9.62c3.66-6.63,10.44-10.85,19.06-10.85h8.56c13,0,21.95,8.94,21.95,22v67.16a235.68,235.68,0,0,0,45.77-49.42V210.13C327.19,166.6,304.86,142.05,264.68,142.05Z"/><path class="cls-3" d="M363.25,89.75a193,193,0,0,0-136.48-56.4C120,33.35,33.09,120.24,33.09,227A192.59,192.59,0,0,0,64.18,332.18q12.15,1.88,24.68,2.7A174.23,174.23,0,0,1,51.63,227c0-96.57,78.56-175.14,175.14-175.14A174.91,174.91,0,0,1,364,118.29c.13-3.05.21-6.12.21-9.2Q364.18,99.32,363.25,89.75Z"/></svg>