<svg id="Layer_1" data-name="Layer 1" xmlns="http://www.w3.org/2000/svg" viewBox="0 0 1168.07 272.67"><defs><style>.cls-1{fill:#95a5a5;}.cls-2{fill:#2c3e50;}.cls-3{fill:#162635;}.cls-4{fill:#fff;}</style></defs><circle class="cls-1" cx="143.66" cy="136.22" r="129.64"/><path class="cls-2" d="M257,136.44a113.12,113.12,0,0,1-42.3,88.23,26.64,26.64,0,0,0-5.86-9.2,102.32,102.32,0,1,0-70.55,23.27V249.6A113.23,113.23,0,1,1,257,136.44Z"/><circle class="cls-2" cx="189.57" cy="234.14" r="21.39" transform="translate(-110.04 202.62) rotate(-45)"/><path class="cls-2" d="M202.4,126.55v72.33a21.39,21.39,0,0,0-26.77.9V125.69c0-7.62-5.23-12.85-12.84-12.85h-5a12.31,12.31,0,0,0-11.15,6.35,14.48,14.48,0,0,0-1.69,5.62V199.9H118.17V125.69c0-7.62-5.22-12.85-12.84-12.85h-5c-7.61,0-12.84,5.23-12.84,12.85V199.9h-.15l-.52-.46a113.72,113.72,0,0,1-26.09-32.93V88.9h12.4l7.61,12.41c6.75-8.93,15.9-14.58,27.21-14.58h.44q20.57,0,30,14.36c6.32-8.92,15.89-14.36,27-14.36h.43C189.34,86.73,202.4,101.09,202.4,126.55Z"/><path class="cls-3" d="M165.83,86.73h-.43c-11.1,0-20.67,5.44-27,14.36q-9.47-14.36-30-14.36h-.44c-11.31,0-20.46,5.65-27.21,14.58L73.12,88.9H60.72v77.61a113.72,113.72,0,0,0,26.09,32.93l.67-.05v-73.7c0-7.62,5.23-12.85,12.84-12.85h5c7.62,0,12.84,5.23,12.84,12.85v68.43a159.67,159.67,0,0,0,26.77-9.86V124.81a14.48,14.48,0,0,1,1.69-5.62,12.31,12.31,0,0,1,11.15-6.35h5c7.61,0,12.84,5.23,12.84,12.85V165a138.14,138.14,0,0,0,26.77-28.91v-9.51C202.4,101.09,189.34,86.73,165.83,86.73Z"/><path class="cls-3" d="M223.49,56.14A113.24,113.24,0,0,0,48.55,197.94Q55.66,199,63,199.52A102.41,102.41,0,0,1,223.92,72.83c.07-1.78.11-3.58.11-5.38Q224,61.74,223.49,56.14Z"/><path class="cls-4" d="M334.29,58.25c-21,0-32.06,14-32.06,40.57v86.34c0,28.24,9.91,41.39,31.2,41.39s32.2-14,32.2-41.47V98.65C365.63,72.6,354.5,58.25,334.29,58.25ZM315.07,99c0-19.9,5.78-28.78,18.74-28.78,12.6,0,19,9.74,19,29v85.27c0,20.87-5.79,30.17-18.78,30.17-12.74,0-18.94-9.52-18.94-29.11Z"/><path class="cls-4" d="M439.9,81.33c0-10.35,1.74-16.76,10.41-16.76A27.61,27.61,0,0,1,455,65l.59.11V52.89l-.34-.11a21.24,21.24,0,0,0-6.07-.8c-14.51,0-21.87,9.37-21.87,27.85v20.72H402.09V81.18c0-10.52,1.7-16.61,10.41-16.61a27.61,27.61,0,0,1,4.71.44l.59.11V52.88l-.35-.11a22.61,22.61,0,0,0-6.06-.79c-14.51,0-21.87,9.29-21.87,27.61v21H376.34v11.82h13.18V224.51h12.57V112.37h25.24V224.51H439.9V112.37h15.82V100.55H439.9Z"/><rect class="cls-4" x="466.88" y="100.55" width="12.57" height="123.96"/><rect class="cls-4" x="466.92" y="52.99" width="12.57" height="25.08"/><path class="cls-4" d="M526.1,98.6c-18.19,0-27.81,12.52-27.81,36.21v51.67c0,27.65,8.28,40,26.83,40,24.68,0,27.53-21.79,27.53-38.17v-2.21H540v3c0,18.76-3.94,25.73-14.53,25.73-9.67,0-14.37-8.81-14.37-26.92V135.54c0-17.49,4.55-25.28,14.77-25.28,12.45,0,14.13,12,14.13,23.84v4.07h12.69v-5.76C552.65,110,543.72,98.6,526.1,98.6Z"/><path class="cls-4" d="M595.58,98.6c-24.7,0-28.39,23.55-28.39,37.58V185.9c0,28.06,8.58,40.57,27.83,40.57,18.27,0,27.54-11.86,27.54-35.24v-1.61H610.1v1.81c0,16.61-4.28,23.38-14.79,23.38s-15.67-9.58-15.67-29.29V164.45h43.19v-28.1C622.83,111.3,613.66,98.6,595.58,98.6Zm-15.9,54.47V136.43c0-12.94,1.87-26.17,15.7-26.17,13.28,0,15.07,13.12,15.07,26v16.85Z"/><path class="cls-4" d="M710.47,60.68c-9.11,44.31-23.29,115.57-26.7,138.45-3.33-25.62-18.64-104.64-25.27-138.44l-.08-.4H640.49V224.51h12.15v-68.6c0-26.39-.81-61.06-1.26-79.33,3.48,23.57,12,71.4,18.92,110.32,2.48,13.92,4.77,26.8,6.59,37.2l.07.41h12.73l.08-.4c9.73-50.35,22.22-116.6,27.09-146.22-.48,18.89-1,46.34-1,72.91v73.71h12.54V60.29h-17.9Z"/><path class="cls-4" d="M801.56,205.51V129.65c0-20.89-8.18-31.05-25-31.05-21.75,0-26.31,16.84-26.31,31v4.59h12.49v-4.67c0-12.77,4.41-19,13.47-19,10.49,0,12.63,8,12.63,19.91V152h-6.37c-23.21,0-36,13.38-36,37.66v2.2c0,22.29,8.42,34.57,23.71,34.57,9.31,0,15.52-3.55,18.9-10.83a71.54,71.54,0,0,0,1,8.47l.08.4h12L802,224C801.74,220.93,801.56,213.85,801.56,205.51Zm-28.95,8.77c-11.25,0-13.61-12.43-13.61-22.87v-2.15c0-17.95,7.25-25.95,23.5-25.95h6.61v20.33C789.11,205.12,784.17,214.28,772.61,214.28Z"/><path class="cls-4" d="M857.54,98.6c-10.25,0-17.37,4.35-21.17,12.93-.07-5.28-.33-8.49-.54-10.53l0-.45h-12l0,.52c.24,6.43.24,12.31.24,37.07v86.37h12.57V143.78c0-27.29,7.18-32.88,18-32.88,9.14,0,13.57,6.38,13.57,19.5v94.11h12.57V127.93C880.75,103.69,868.13,98.6,857.54,98.6Z"/><path class="cls-4" d="M952.33,205.51V129.65c0-20.89-8.19-31.05-25-31.05-21.74,0-26.3,16.84-26.3,31v4.59H913.5v-4.67c0-12.77,4.4-19,13.46-19,10.49,0,12.64,8,12.64,19.91V152h-6.38c-23.21,0-36,13.38-36,37.66v2.2c0,22.29,8.42,34.57,23.72,34.57,9.31,0,15.51-3.55,18.89-10.83a69.31,69.31,0,0,0,1,8.47l.08.4h12l-.05-.54C952.51,220.93,952.33,213.85,952.33,205.51Zm-29,8.77c-11.25,0-13.61-12.43-13.61-22.87v-2.15c0-17.95,7.25-25.95,23.5-25.95h6.6v20.33C939.87,205.12,934.94,214.28,923.38,214.28Z"/><path class="cls-4" d="M1018.07,101c-.05.59-.11,1.23-.18,1.91-.19,1.87-.4,4.06-.52,6.11-2.46-5.41-8.41-10.43-18.88-10.43-17.25,0-27.14,13.29-27.14,36.48v51.47c0,25.23,8.09,37.49,24.74,37.49,10.1,0,16.35-3.65,19.95-11.76v14.86c0,18.18-2.82,29.44-16.89,29.44-13.71,0-15.19-12.79-15.19-18.29v-1.4H971.19v1.2c0,13.72,4.74,30.07,27.34,30.07,27.76,0,30.08-21.55,30.08-43.63V134.59c0-19.57.36-30.6.47-33.52l0-.52h-11ZM998.32,211.82c-9.56,0-14.2-8.64-14.2-26.41V135.56c0-16.59,5.22-24.66,16-24.66,14.92,0,16.15,13.79,16.15,29.15v36.53C1016.24,193,1014.2,211.82,998.32,211.82Z"/><path class="cls-4" d="M1076,98.6c-24.7,0-28.39,23.55-28.39,37.58V185.9c0,28.06,8.59,40.57,27.84,40.57,18.27,0,27.53-11.86,27.53-35.24v-1.61h-12.45v1.81c0,16.61-4.29,23.38-14.8,23.38S1060,205.23,1060,185.52V164.45h43.18v-28.1C1103.2,111.3,1094,98.6,1076,98.6Zm-15.9,54.47V136.43c0-12.94,1.87-26.17,15.71-26.17,13.28,0,15.07,13.12,15.07,26v16.85Z"/><path class="cls-4" d="M1157,99c-11,.45-19.51,6.87-23.68,17.75,0-7.4-.28-12.09-.51-15.74l0-.47h-12.13v.52c.24,8.63.24,20,.24,35.63v87.81h12.57V147.12c0-20.31,8.58-32.07,23.55-32.27h.5V99Z"/></svg>